<svg xmlns="http://www.w3.org/2000/svg" xmlns:xlink="http://www.w3.org/1999/xlink" width="500" zoomAndPan="magnify" viewBox="0 0 375 374.999991" height="500" preserveAspectRatio="xMidYMid meet" version="1.0"><defs><g/><clipPath id="f5509af6ad"><rect x="0" width="368" y="0" height="188"/></clipPath><clipPath id="cfb6d4dc22"><path d="M 123.34375 113.953125 L 146.558594 113.953125 L 146.558594 153.851562 L 123.34375 153.851562 Z M 123.34375 113.953125 " clip-rule="nonzero"/></clipPath><clipPath id="b33b57f42a"><path d="M 134.949219 113.953125 C 140.015625 121.492188 146.558594 133.960938 146.558594 142.535156 C 146.558594 148.78125 141.355469 153.851562 134.949219 153.851562 C 128.546875 153.851562 123.34375 148.78125 123.34375 142.535156 C 123.34375 133.960938 136.976562 126.429688 134.949219 113.953125 Z M 134.949219 113.953125 " clip-rule="nonzero"/></clipPath><clipPath id="ac01f2ee41"><path d="M 0.34375 0.953125 L 23.558594 0.953125 L 23.558594 40.851562 L 0.34375 40.851562 Z M 0.34375 0.953125 " clip-rule="nonzero"/></clipPath><clipPath id="82a3e67f11"><path d="M 11.949219 0.953125 C 17.015625 8.492188 23.558594 20.960938 23.558594 29.535156 C 23.558594 35.78125 18.355469 40.851562 11.949219 40.851562 C 5.546875 40.851562 0.34375 35.78125 0.34375 29.535156 C 0.34375 20.960938 13.976562 13.429688 11.949219 0.953125 Z M 11.949219 0.953125 " clip-rule="nonzero"/></clipPath><clipPath id="373dcb449d"><rect x="0" width="24" y="0" height="41"/></clipPath></defs><g transform="matrix(1, 0, 0, 1, 0.000000000000000056, 93)"><g clip-path="url(#f5509af6ad)"><g fill="#7ed6a3" fill-opacity="1"><g transform="translate(0.703, 142.028832)"><g><path d="M 33.875 1.71875 C 27.75 1.71875 22.722656 0.738281 18.796875 -1.21875 C 14.878906 -3.175781 11.960938 -5.78125 10.046875 -9.03125 C 8.128906 -12.289062 7.171875 -15.882812 7.171875 -19.8125 C 7.171875 -26.414062 9.753906 -31.769531 14.921875 -35.875 C 20.085938 -39.988281 27.835938 -42.046875 38.171875 -42.046875 L 56.265625 -42.046875 L 56.265625 -43.78125 C 56.265625 -48.65625 54.875 -52.238281 52.09375 -54.53125 C 49.320312 -56.832031 45.878906 -57.984375 41.765625 -57.984375 C 38.035156 -57.984375 34.78125 -57.097656 32 -55.328125 C 29.226562 -53.554688 27.507812 -50.953125 26.84375 -47.515625 L 8.90625 -47.515625 C 9.375 -52.679688 11.113281 -57.175781 14.125 -61 C 17.144531 -64.820312 21.046875 -67.757812 25.828125 -69.8125 C 30.617188 -71.875 35.976562 -72.90625 41.90625 -72.90625 C 52.050781 -72.90625 60.039062 -70.367188 65.875 -65.296875 C 71.71875 -60.234375 74.640625 -53.0625 74.640625 -43.78125 L 74.640625 0 L 58.984375 0 L 57.265625 -11.484375 C 55.160156 -7.648438 52.21875 -4.488281 48.4375 -2 C 44.65625 0.476562 39.800781 1.71875 33.875 1.71875 Z M 38.03125 -12.625 C 43.300781 -12.625 47.394531 -14.347656 50.3125 -17.796875 C 53.226562 -21.242188 55.066406 -25.503906 55.828125 -30.578125 L 40.1875 -30.578125 C 35.3125 -30.578125 31.816406 -29.691406 29.703125 -27.921875 C 27.597656 -26.148438 26.546875 -23.972656 26.546875 -21.390625 C 26.546875 -18.609375 27.597656 -16.453125 29.703125 -14.921875 C 31.816406 -13.390625 34.59375 -12.625 38.03125 -12.625 Z M 38.03125 -12.625 "/></g></g></g><g fill="#7ed6a3" fill-opacity="1"><g transform="translate(69.44942, 142.028832)"><g><path d="M 9.328125 0 L 9.328125 -103.34375 L 27.703125 -103.34375 L 27.703125 0 Z M 9.328125 0 "/></g></g></g><g fill="#7ed6a3" fill-opacity="1"><g transform="translate(92.555314, 142.028832)"><g><path d="M 9.328125 0 L 9.328125 -103.34375 L 27.703125 -103.34375 L 27.703125 0 Z M 9.328125 0 "/></g></g></g><g fill="#7ed6a3" fill-opacity="1"><g transform="translate(115.661207, 142.028832)"><g><path d="M 19.234375 -82.25 C 15.878906 -82.25 13.125 -83.25 10.96875 -85.25 C 8.820312 -87.257812 7.75 -89.796875 7.75 -92.859375 C 7.75 -95.921875 8.820312 -98.429688 10.96875 -100.390625 C 13.125 -102.359375 15.878906 -103.34375 19.234375 -103.34375 C 22.578125 -103.34375 25.328125 -102.359375 27.484375 -100.390625 C 29.640625 -98.429688 30.71875 -95.921875 30.71875 -92.859375 C 30.71875 -89.796875 29.640625 -87.257812 27.484375 -85.25 C 25.328125 -83.25 22.578125 -82.25 19.234375 -82.25 Z M 10.046875 0 L 10.046875 -71.1875 L 28.421875 -71.1875 L 28.421875 0 Z M 10.046875 0 "/></g></g></g><g fill="#7ed6a3" fill-opacity="1"><g transform="translate(139.915287, 142.028832)"><g><path d="M 39.46875 -21.25 C 36.019531 -21.25 32.816406 -21.628906 29.859375 -22.390625 L 24.546875 -17.078125 C 26.171875 -16.210938 28.367188 -15.492188 31.140625 -14.921875 C 33.921875 -14.347656 38.421875 -13.773438 44.640625 -13.203125 C 54.109375 -12.335938 60.992188 -10.085938 65.296875 -6.453125 C 69.609375 -2.816406 71.765625 2.203125 71.765625 8.609375 C 71.765625 12.816406 70.613281 16.8125 68.3125 20.59375 C 66.019531 24.375 62.476562 27.4375 57.6875 29.78125 C 52.90625 32.125 46.785156 33.296875 39.328125 33.296875 C 29.179688 33.296875 21 31.40625 14.78125 27.625 C 8.5625 23.84375 5.453125 18.175781 5.453125 10.625 C 5.453125 4.207031 8.5625 -1.34375 14.78125 -6.03125 C 12.863281 -6.882812 11.210938 -7.789062 9.828125 -8.75 C 8.441406 -9.707031 7.222656 -10.710938 6.171875 -11.765625 L 6.171875 -15.078125 L 18.65625 -28.28125 C 13.101562 -33.15625 10.328125 -39.421875 10.328125 -47.078125 C 10.328125 -51.859375 11.5 -56.210938 13.84375 -60.140625 C 16.195312 -64.066406 19.523438 -67.175781 23.828125 -69.46875 C 28.128906 -71.757812 33.34375 -72.90625 39.46875 -72.90625 C 43.488281 -72.90625 47.222656 -72.332031 50.671875 -71.1875 L 77.65625 -71.1875 L 77.65625 -60 L 65.453125 -59.140625 C 67.367188 -55.503906 68.328125 -51.484375 68.328125 -47.078125 C 68.328125 -42.296875 67.175781 -37.941406 64.875 -34.015625 C 62.582031 -30.085938 59.257812 -26.976562 54.90625 -24.6875 C 50.550781 -22.394531 45.40625 -21.25 39.46875 -21.25 Z M 39.46875 -35.3125 C 43.195312 -35.3125 46.28125 -36.316406 48.71875 -38.328125 C 51.164062 -40.335938 52.390625 -43.207031 52.390625 -46.9375 C 52.390625 -50.664062 51.164062 -53.535156 48.71875 -55.546875 C 46.28125 -57.554688 43.195312 -58.5625 39.46875 -58.5625 C 35.550781 -58.5625 32.394531 -57.554688 30 -55.546875 C 27.601562 -53.535156 26.40625 -50.664062 26.40625 -46.9375 C 26.40625 -43.207031 27.601562 -40.335938 30 -38.328125 C 32.394531 -36.316406 35.550781 -35.3125 39.46875 -35.3125 Z M 22.25 8.75 C 22.25 12.289062 23.898438 14.945312 27.203125 16.71875 C 30.503906 18.488281 34.546875 19.375 39.328125 19.375 C 43.921875 19.375 47.648438 18.441406 50.515625 16.578125 C 53.390625 14.710938 54.828125 12.203125 54.828125 9.046875 C 54.828125 6.460938 53.894531 4.304688 52.03125 2.578125 C 50.164062 0.859375 46.457031 -0.191406 40.90625 -0.578125 C 36.976562 -0.859375 33.34375 -1.285156 30 -1.859375 C 27.21875 -0.328125 25.226562 1.34375 24.03125 3.15625 C 22.84375 4.976562 22.25 6.84375 22.25 8.75 Z M 22.25 8.75 "/></g></g></g><g fill="#7ed6a3" fill-opacity="1"><g transform="translate(207.513507, 142.028832)"><g><path d="M 9.328125 0 L 9.328125 -71.1875 L 25.546875 -71.1875 L 26.984375 -59.140625 C 29.179688 -63.347656 32.359375 -66.691406 36.515625 -69.171875 C 40.679688 -71.660156 45.585938 -72.90625 51.234375 -72.90625 C 60.046875 -72.90625 66.890625 -70.128906 71.765625 -64.578125 C 76.640625 -59.035156 79.078125 -50.90625 79.078125 -40.1875 L 79.078125 0 L 60.71875 0 L 60.71875 -38.46875 C 60.71875 -44.59375 59.472656 -49.28125 56.984375 -52.53125 C 54.492188 -55.78125 50.617188 -57.40625 45.359375 -57.40625 C 40.191406 -57.40625 35.957031 -55.585938 32.65625 -51.953125 C 29.351562 -48.316406 27.703125 -43.25 27.703125 -36.75 L 27.703125 0 Z M 9.328125 0 "/></g></g></g><g fill="#7ed6a3" fill-opacity="1"><g transform="translate(280.709155, 142.028832)"><g><path d="M 42.046875 1.71875 C 35.347656 1.71875 29.367188 0.09375 24.109375 -3.15625 C 18.847656 -6.40625 14.6875 -10.851562 11.625 -16.5 C 8.5625 -22.144531 7.03125 -28.554688 7.03125 -35.734375 C 7.03125 -42.910156 8.5625 -49.296875 11.625 -54.890625 C 14.6875 -60.492188 18.847656 -64.894531 24.109375 -68.09375 C 29.367188 -71.300781 35.347656 -72.90625 42.046875 -72.90625 C 47.410156 -72.90625 52.101562 -71.898438 56.125 -69.890625 C 60.144531 -67.890625 63.394531 -65.070312 65.875 -61.4375 L 65.875 -103.34375 L 84.25 -103.34375 L 84.25 0 L 67.890625 0 L 65.875 -10.1875 C 63.582031 -7.03125 60.546875 -4.253906 56.765625 -1.859375 C 52.984375 0.523438 48.078125 1.71875 42.046875 1.71875 Z M 45.9375 -14.359375 C 51.863281 -14.359375 56.71875 -16.34375 60.5 -20.3125 C 64.28125 -24.28125 66.171875 -29.375 66.171875 -35.59375 C 66.171875 -41.8125 64.28125 -46.90625 60.5 -50.875 C 56.71875 -54.851562 51.863281 -56.84375 45.9375 -56.84375 C 40.09375 -56.84375 35.253906 -54.878906 31.421875 -50.953125 C 27.597656 -47.023438 25.6875 -41.953125 25.6875 -35.734375 C 25.6875 -29.515625 27.597656 -24.394531 31.421875 -20.375 C 35.253906 -16.363281 40.09375 -14.359375 45.9375 -14.359375 Z M 45.9375 -14.359375 "/></g></g></g></g></g><g clip-path="url(#cfb6d4dc22)"><g clip-path="url(#b33b57f42a)"><g transform="matrix(1, 0, 0, 1, 123, 113)"><g clip-path="url(#373dcb449d)"><g clip-path="url(#ac01f2ee41)"><g clip-path="url(#82a3e67f11)"><path fill="#7ed6a3" d="M 0.34375 0.953125 L 23.558594 0.953125 L 23.558594 40.851562 L 0.34375 40.851562 Z M 0.34375 0.953125 " fill-opacity="1" fill-rule="nonzero"/></g></g></g></g></g></g></svg>